<?xml version="1.0" encoding="utf-8"?>
<!-- Svg Vector Icons : http://www.onlinewebfonts.com/icon -->
<!DOCTYPE svg PUBLIC "-//W3C//DTD SVG 1.1//EN" "http://www.w3.org/Graphics/SVG/1.1/DTD/svg11.dtd">
<svg version="1.1" xmlns="http://www.w3.org/2000/svg" xmlns:xlink="http://www.w3.org/1999/xlink" x="0px" y="0px" viewBox="0 0 1000 1000" enable-background="new 0 0 1000 1000" xml:space="preserve">
<metadata> Svg Vector Icons : http://www.onlinewebfonts.com/icon </metadata>
<g><g transform="translate(0.000000,512.000000) scale(0.100000,-0.100000)"><path d="M4693.7,4407.5V3795H3043.8H1392L886.7,1425.4C607.2,123.8,373.7-978.7,362.2-1022.7L345-1105H222.5H100v-218.2c0-484.2,145.5-861.3,451.7-1167.6c595.3-595.3,1552.3-595.3,2153.3-1.9c312,310.1,457.5,681.4,457.5,1169.5v218.2H3063h-101.4l-503.4,2130.3c-275.6,1169.5-503.4,2134.2-501.5,2143.7c0,7.7,616.3,13.4,1368.6,13.4h1368.6v-3675v-3675h-612.5h-612.5v-306.3V-4780H5000h1531.3v306.3v306.3h-612.5h-612.5v3675v3675h1378.1c1092.9,0,1374.3-5.7,1368.6-23c-3.8-13.4-189.5-958.9-411.5-2101.6C7419.4-84.8,7231.8-1038,7226.1-1061c-9.6-42.1-19.1-44-199.1-44h-189.5v-218.2c0-484.2,145.5-861.3,451.7-1167.6c595.3-595.3,1552.3-595.3,2153.3-1.9c312,310.1,457.5,681.4,457.5,1169.5v218.2h-168.4H9565l-467,2427c-256.5,1334.1-470.8,2436.6-474.7,2450c-7.6,17.2-357.9,23-1663.3,23H5306.2v612.5V5020H5000h-306.3V4407.5z M1973.9,409c191.4-803.9,346.4-1473.8,346.4-1487.2c0-23-111-26.8-669.9-26.8c-461.3,0-669.9,5.7-669.9,21c0,17.2,599.1,2836.6,625.9,2945.8c7.7,26.8,15.3,38.3,17.2,28.7C1627.4,1879,1784.4,1212.9,1973.9,409z M8665.4,330.5c141.7-742.7,262.2-1368.6,268-1391.5l9.6-44h-545.5c-396.2,0-545.5,5.7-545.5,21c0,13.4,120.6,641.2,268,1397.3c147.4,756.1,268,1380,269.9,1389.6C8393.6,1743.1,8422.3,1597.7,8665.4,330.5z M2358.6-1740.5c-1.9-51.7-114.8-308.2-164.6-373.2c-67-86.1-252.7-174.2-428.7-202.9c-256.5-38.3-585.7,55.5-696.7,202.9c-49.8,65.1-162.7,321.6-164.6,373.2c0,17.2,157,23,727.3,23S2358.6-1723.2,2358.6-1740.5z M9096.1-1740.5c-1.9-51.7-114.8-308.2-164.6-373.2c-67-86.1-252.7-174.2-428.8-202.9c-172.3-26.8-359.8,1.9-524.5,78.5c-147.4,68.9-202.9,137.8-289,356l-65.1,164.6h736.9C8937.2-1717.5,9096.1-1723.2,9096.1-1740.5z"/></g></g>
</svg>